<?xml version="1.0" ?>
<!DOCTYPE svg  PUBLIC '-//W3C//DTD SVG 1.1//EN'  'http://www.w3.org/Graphics/SVG/1.1/DTD/svg11.dtd'>
<!-- Uploaded to: SVG Repo, www.svgrepo.com, Generator: SVG Repo Mixer Tools -->
<svg fill="#000000" width="800px" height="800px" viewBox="0 0 32 32" style="fill-rule:evenodd;clip-rule:evenodd;stroke-linejoin:round;stroke-miterlimit:2;" version="1.1" xml:space="preserve" xmlns="http://www.w3.org/2000/svg" xmlns:serif="http://www.serif.com/" xmlns:xlink="http://www.w3.org/1999/xlink">
<g id="Icon">
<path d="M15.996,2.002c-7.727,-0 -14,6.273 -14,14c0,7.726 6.273,14 14,14c7.727,-0 14,-6.274 14,-14c0,-7.727 -6.273,-14 -14,-14Zm0,2c6.623,-0 12,5.377 12,12c0,6.623 -5.377,12 -12,12c-6.623,-0 -12,-5.377 -12,-12c0,-6.623 5.377,-12 12,-12Zm1.999,6.868l-6.895,2.99c-0.541,-0.531 -1.283,-0.858 -2.1,-0.858c-1.656,-0 -3,1.344 -3,3c0,1.655 1.344,3 3,3c0.82,-0 1.564,-0.33 2.106,-0.864l6.889,3.014c0.075,1.59 1.389,2.858 2.997,2.858c1.656,0 3,-1.344 3,-3c0,-1.656 -1.344,-3 -3,-3c-0.987,0 -1.864,0.478 -2.411,1.215l-6.6,-2.887c0.013,-0.11 0.019,-0.223 0.019,-0.336c0,-0.117 -0.007,-0.231 -0.019,-0.343l6.606,-2.866c0.547,0.732 1.421,1.207 2.405,1.207c1.656,0 3,-1.344 3,-3c0,-1.656 -1.344,-3 -3,-3c-1.612,0 -2.929,1.274 -2.997,2.87Zm2.997,9.14c0.552,0 1,0.448 1,1c0,0.552 -0.448,1 -1,1c-0.552,0 -1,-0.448 -1,-1c0,-0.552 0.448,-1 1,-1Zm-11.992,-5.008c0.552,-0 1,0.448 1,1c0,0.551 -0.448,1 -1,1c-0.552,-0 -1,-0.449 -1,-1c0,-0.552 0.448,-1 1,-1Zm11.992,-5.002c0.552,-0 1,0.448 1,1c0,0.552 -0.448,1 -1,1c-0.552,-0 -1,-0.448 -1,-1c0,-0.552 0.448,-1 1,-1Z"/>
</g>
</svg>