<svg width="0" height="0" class="hidden">
  <symbol fill="none" xmlns="http://www.w3.org/2000/svg" viewBox="0 0 60 60" id="facebook">
    <circle cx="30" cy="30" r="29" stroke="white" stroke-width="2"></circle>
    <path d="M37.85 16H33.8C32.0098 16 30.2928 16.7112 29.0271 17.977C27.7612 19.2429 27.05 20.9598 27.05 22.75V26.8H23V32.2H27.05V43H32.45V32.2H36.5L37.85 26.8H32.45V22.75C32.45 22.392 32.5923 22.0486 32.8454 21.7954C33.0985 21.5422 33.442 21.4 33.8 21.4H37.85V16Z" fill="white"></path>
  </symbol>
  <symbol fill="none" xmlns="http://www.w3.org/2000/svg" viewBox="0 0 60 60" id="twiter">
    <circle cx="30" cy="30" r="29" stroke="white" stroke-width="2"></circle>
    <path d="M43 19.0119C43 19.0119 40.6152 20.4207 39.2891 20.8201C38.5773 20.0017 37.6314 19.4216 36.5792 19.1583C35.527 18.8951 34.4194 18.9613 33.4061 19.3481C32.3928 19.7348 31.5227 20.4235 30.9135 21.3208C30.3043 22.2182 29.9855 23.281 30 24.3655V25.5473C27.9231 25.6012 25.8651 25.1406 24.0094 24.2065C22.1536 23.2724 20.5577 21.8939 19.3636 20.1937C19.3636 20.1937 14.6364 30.8301 25.2727 35.5574C22.8388 37.2095 19.9394 38.0379 17 37.921C27.6364 43.8301 40.6364 37.921 40.6364 24.3301C40.6353 24.0009 40.6036 23.6725 40.5418 23.3492C41.748 22.1596 43 19.0119 43 19.0119Z" fill="white"></path>
  </symbol>
  <symbol fill="none" xmlns="http://www.w3.org/2000/svg" viewBox="0 0 60 60" id="youtube">
    <circle cx="30" cy="30" r="29" stroke="white" stroke-width="2"></circle>
    <path fill-rule="evenodd" clip-rule="evenodd" d="M17 28.6299V30.5403C17 34.4489 17 36.4033 18.2224 37.6607C19.4447 38.9182 21.3691 38.9726 25.2177 39.0816L25.2183 39.0816C27.0422 39.1331 28.9054 39.1701 30.5 39.1701C32.0946 39.1701 33.9578 39.1331 35.7817 39.0816L35.7823 39.0816C39.6309 38.9726 41.5552 38.9182 42.7776 37.6607C44 36.4033 44 34.4489 44 30.5403V28.6299C44 24.7212 44 22.7668 42.7776 21.5093C41.5552 20.2518 39.6306 20.1974 35.7816 20.0885L35.7816 20.0885C33.9578 20.037 32.0946 20 30.5 20C28.9054 20 27.0423 20.037 25.2184 20.0885C21.3694 20.1974 19.4448 20.2518 18.2224 21.5093C17 22.7668 17 24.7212 17 28.6299ZM28 33L34 29.5L28 26V33Z" fill="white"></path>
  </symbol>
</svg>