<svg width="60" height="60" viewBox="0 0 60 60" fill="none" xmlns="http://www.w3.org/2000/svg">
<circle cx="30" cy="30" r="29" stroke="white" stroke-width="2"/>
<path d="M43 19.0119C43 19.0119 40.6152 20.4207 39.2891 20.8201C38.5773 20.0017 37.6314 19.4216 36.5792 19.1583C35.527 18.8951 34.4194 18.9613 33.4061 19.3481C32.3928 19.7348 31.5227 20.4235 30.9135 21.3208C30.3043 22.2182 29.9855 23.281 30 24.3655V25.5473C27.9231 25.6012 25.8651 25.1406 24.0094 24.2065C22.1536 23.2724 20.5577 21.8939 19.3636 20.1937C19.3636 20.1937 14.6364 30.8301 25.2727 35.5574C22.8388 37.2095 19.9394 38.0379 17 37.921C27.6364 43.8301 40.6364 37.921 40.6364 24.3301C40.6353 24.0009 40.6036 23.6725 40.5418 23.3492C41.748 22.1596 43 19.0119 43 19.0119Z" fill="white"/>
</svg>
