<svg width="60" height="60" viewBox="0 0 60 60" fill="none" xmlns="http://www.w3.org/2000/svg">
<circle cx="30" cy="30" r="29" stroke="white" stroke-width="2"/>
<path fill-rule="evenodd" clip-rule="evenodd" d="M17 28.6299V30.5403C17 34.4489 17 36.4033 18.2224 37.6607C19.4447 38.9182 21.3691 38.9726 25.2177 39.0816L25.2183 39.0816C27.0422 39.1331 28.9054 39.1701 30.5 39.1701C32.0946 39.1701 33.9578 39.1331 35.7817 39.0816L35.7823 39.0816C39.6309 38.9726 41.5552 38.9182 42.7776 37.6607C44 36.4033 44 34.4489 44 30.5403V28.6299C44 24.7212 44 22.7668 42.7776 21.5093C41.5552 20.2518 39.6306 20.1974 35.7816 20.0885L35.7816 20.0885C33.9578 20.037 32.0946 20 30.5 20C28.9054 20 27.0423 20.037 25.2184 20.0885C21.3694 20.1974 19.4448 20.2518 18.2224 21.5093C17 22.7668 17 24.7212 17 28.6299ZM28 33L34 29.5L28 26V33Z" fill="white"/>
</svg>
